<svg xmlns="http://www.w3.org/2000/svg" xmlns:xlink="http://www.w3.org/1999/xlink" width="1080" zoomAndPan="magnify" viewBox="0 0 810 809.999993" height="1080" preserveAspectRatio="xMidYMid meet" version="1.0"><defs><clipPath id="164a21eb2c"><path d="M 86.089844 19 L 723.589844 19 L 723.589844 791.691406 L 86.089844 791.691406 Z M 86.089844 19 " clip-rule="nonzero"/></clipPath></defs><g clip-path="url(#164a21eb2c)"><path fill="#f4c95d" d="M 452.566406 393.660156 L 434.691406 197.683594 L 523.699219 173.835938 L 610.894531 362.59375 C 611.949219 364.914062 612.976562 367.257812 613.964844 369.617188 C 579.5 419.417969 494.941406 356.617188 452.566406 393.660156 Z M 506.488281 100.59375 C 512.214844 99.066406 518.097656 102.46875 519.625 108.195312 C 521.15625 113.921875 517.753906 119.804688 512.027344 121.332031 L 473.773438 131.582031 C 468.046875 133.113281 462.164062 129.710938 460.636719 123.984375 C 459.105469 118.257812 462.511719 112.375 468.238281 110.84375 Z M 418.253906 27.558594 C 419.78125 21.832031 425.664062 18.429688 431.394531 19.957031 C 437.121094 21.488281 440.519531 27.371094 438.992188 33.097656 L 428.742188 71.351562 C 427.214844 77.078125 421.328125 80.480469 415.605469 78.953125 C 409.878906 77.425781 406.476562 71.539062 408.003906 65.8125 Z M 486.964844 37.429688 C 491.15625 33.238281 497.964844 33.238281 502.160156 37.429688 C 506.351562 41.625 506.351562 48.429688 502.160156 52.625 L 460.066406 94.714844 C 455.871094 98.90625 449.066406 98.90625 444.871094 94.714844 C 440.679688 90.519531 440.679688 83.710938 444.871094 79.519531 Z M 357.429688 309.121094 L 375.304688 113.144531 L 286.296875 89.292969 L 199.105469 278.054688 C 198.046875 280.375 197.023438 282.71875 196.03125 285.078125 C 230.496094 334.875 315.058594 272.074219 357.429688 309.121094 Z M 249.972656 458.085938 L 201.085938 640.542969 L 267.238281 691.863281 L 263.207031 706.917969 L 174.839844 683.238281 L 86.472656 659.5625 L 90.507812 644.507812 L 173.457031 633.140625 L 222.347656 450.679688 C 220.09375 449.792969 217.902344 448.863281 215.773438 447.886719 C 185.777344 434.15625 169.265625 412.304688 162.300781 386.597656 C 155.59375 361.847656 158.039062 333.789062 165.835938 306.324219 C 169.402344 293.746094 174.132812 281.214844 179.625 269.148438 L 270.433594 72.484375 C 272.457031 67.578125 277.855469 64.8125 283.121094 66.21875 L 389.554688 94.738281 L 389.546875 94.765625 C 394.496094 96.078125 397.921875 100.804688 397.449219 106.074219 L 377.796875 321.628906 C 376.527344 335.054688 374.335938 348.464844 371.109375 361.273438 C 364.128906 388.964844 352.199219 414.507812 333.980469 432.625 C 315.097656 451.394531 289.894531 462.0625 257.074219 458.953125 C 254.734375 458.734375 252.367188 458.445312 249.972656 458.085938 Z M 560.023438 542.628906 L 608.910156 725.085938 L 542.757812 776.40625 L 546.792969 791.457031 L 635.15625 767.78125 L 723.527344 744.101562 L 719.488281 729.050781 L 636.539062 717.683594 L 587.648438 535.21875 C 589.902344 534.335938 592.09375 533.402344 594.222656 532.429688 C 624.21875 518.699219 640.726562 496.84375 647.695312 471.136719 C 654.402344 446.390625 651.957031 418.332031 644.160156 390.867188 C 640.59375 378.289062 635.867188 365.757812 630.371094 353.6875 L 539.5625 157.027344 C 537.539062 152.121094 532.140625 149.355469 526.875 150.761719 L 420.441406 179.28125 L 420.449219 179.304688 C 415.5 180.621094 412.074219 185.34375 412.546875 190.613281 L 432.199219 406.171875 C 433.46875 419.59375 435.660156 433.003906 438.886719 445.8125 C 445.867188 473.503906 457.796875 499.050781 476.015625 517.164062 C 494.894531 535.9375 520.101562 546.601562 552.917969 543.496094 C 555.261719 543.273438 557.628906 542.984375 560.023438 542.628906 Z M 560.023438 542.628906 " fill-opacity="1" fill-rule="evenodd"/></g></svg>